<svg xmlns="http://www.w3.org/2000/svg" viewBox="0 0 650.683 301.709"><g xmlns="http://www.w3.org/2000/svg" transform="matrix(0 1 -1 0 650.683 -0)"><path d="m85.867,164.105c-2.61.386-5.272-.541-9.236,0 2.304-1.74 6.615-.711 9.236,0z" fill-rule="evenodd" /><path d="m165.586,167.508c2.228.324-.391,2.943 0,0z" fill-rule="evenodd" /><path d="m74.201,170.911c.491-1.369 2.064.134 2.917,0-.6,1.477-1.672-.527-2.917,0z" fill-rule="evenodd" /><path d="m285.164,170.911c-1.982.408-6.655,2.899-8.264.486 3.26.343 5.334-.5 8.264-.486z" fill-rule="evenodd" /><path d="m276.42 178.2c-2.695 1.842-7.652 1.421-12.152 1.458 2.443-1.324 8.418-0.194 12.152-1.458z" fill-rule="evenodd" /><path d="m281.275,190.84c1.49.478-.559,1.297-.485,1.944-1.49-.476.559-1.296.485-1.944z" fill-rule="evenodd" /><path d="m187.946,198.132c-5.451-.562-14.607-1.684-20.902.486 4.627-2.993 15.571-2.333 20.902-.486z" fill-rule="evenodd" /><path d="m188.43 199.1c5.784-0.596 10.216 4.365 14.097 7.292-2.302 0.836-3.119-2.193-4.861-3.403-2.616-1.816-6.106-2.643-9.236-3.889z" fill-rule="evenodd" /><path d="m132.532,221.95c1.49.478-.559,1.297-.486,1.944-1.49-.477.558-1.296.486-1.944z" fill-rule="evenodd" /><path d="m63.993,234.589c.12-.528.966-.33.972-.973 6.855-.164 2.037.738-.972.973z" fill-rule="evenodd" /><path d="m99.478,234.589c-.212.598-.622.998-1.458.972 .211-.598.622-.999 1.458-.972z" fill-rule="evenodd" /><path d="m156.836,252.574c2.224.342.386,3.996.486,5.347-1.112-.832-.178-3.711-.486-5.347z" fill-rule="evenodd" /><path d="m103.366,256.463c1.223.488-.387,2.149-1.458,1.944 .143-.991 1.316-.953 1.458-1.944z" fill-rule="evenodd" /><path d="m141.281,270.073c.927.746.789,9.94-1.458,10.694 .546-3.505 1.727-6.374 1.458-10.694z" fill-rule="evenodd" /><path d="m141.768,282.711c-.241-2.194 1.889-6.206 2.431-9.235 .919,1.427-.696,4.472-.973,6.319 2.188-1.054 1.623-4.858 2.431-7.291 1.054-.082.22,1.724.486,2.43 1.177-.281 1.081-1.835 1.458-2.917 1.462,1.338-.488,3.373-.486,4.861 1.843.646 1.194-3.993 1.944-6.805 3.03,2.113 1.13,5.949-.486,7.777-1.871,2.117-6.334,2.302-6.805,4.861z" fill-rule="evenodd" /><path d="m146.143,283.198c.071-.133 1.045-.899 1.458-.486 .336.335-1.918,1.339-1.458.486z" fill-rule="evenodd" /><path d="m33.855,306.53c.925-.893 4.608-.42 4.861.972-2.267.323-3.123-.766-4.861-.972z" fill-rule="evenodd" /><path d="m41.633,307.016c-.77-.041-1.854.234-1.944-.486 .769.04 1.853-.234 1.944.486z" fill-rule="evenodd" /><path d="m278.359,350.765c-2.759-3.178-1.866-7.947-2.917-13.125-2.723-13.417-13.113-21.667-22.36-29.165-.257-.391-.507-.789-.485-1.458 .433-.299.869-.587.972,0 7.054,5.868 15.436,11.595 19.443,21.388 1.261,3.08 2.967,6.947 3.403,10.208 .63,4.702.13,8.033 1.944,12.152z" fill-rule="evenodd" /><path d="m28.022,307.016c-.407,1.051-1.259,1.658-.972,3.403-1.016.206-1.287-.333-1.944-.486 .58-1.365.79-3.1 2.916-2.917z" fill-rule="evenodd" /><path d="m138.365,308.96c1.571.575 1.384,4.819.972,5.833-1.318-.826-1.861-4.341-.972-5.833z" fill-rule="evenodd" /><path d="m31.911,316.252c1.079-1.944 5.631.767 0,0z" fill-rule="evenodd" /><path d="m241.416,327.432c.722-.212-.191-.622 0-1.458 1.561-.426 1.008,1.261 1.944,1.458-.209.764-1.529.416-.972,1.944-2.758-2.265-4.99-5.055-5.833-9.235 1.627,2.424 2.994,5.108 4.861,7.291z" fill-rule="evenodd" /><path d="m30.939,346.39c.565-.079.865.107.972.486-3.038,5.213.178,11.432-.486,18.471-1.432-5.905-3.557-13.817-.486-18.957z" fill-rule="evenodd" /><path d="m30.453,366.319c1.541.475.227,3.155.972,5.347-1.165-.192.27,2.214-1.458,1.458-.219-2.649.866-3.994.486-6.805z" fill-rule="evenodd" /><path d="m171.905,511.175c-2.231,3.033-4.485,5.744-5.833,10.207-.305,1.008.113,2.989-1.458,3.403 .15-6.817 2.678-11.257 7.291-13.61z" fill-rule="evenodd" /><path d="m152.461,536.451c.528.12.33.966.972.972-.208,1.346-1.528.025-.972-.972z" fill-rule="evenodd" /><path d="m163.642,571.449c.565-.079.865.107.972.486 .874,5.295.708,13.636 0,18.958-1.475-5.036-1.701-13.813-.972-19.444z" fill-rule="evenodd" /><path d="m154.892,584.574c.565-.079.865.107.972.486 1.395,15.037.218,29.384-2.431,41.317 .197-12.28 2.325-26.84 1.459-41.803z" fill-rule="evenodd" /><path d="m158.781,588.949c.565-.079.865.106.972.485-.947,3.753.115,9.513-.972,13.125-1.62-5.001-.774-8.195 0-13.61z" fill-rule="evenodd" /><path d="m162.669,609.851h1.458c-.194,12.891-.22,29.487-2.431,40.832-1.994-1.052-1.037-4.08-.972-5.833 .383-10.337 2.809-21.128 1.944-33.541 .001-.486.001-.972.001-1.458z" fill-rule="evenodd" /><path d="m42.119,355.14c4.61-1.359 2.177-10.194 3.402-15.556 1.618-7.077 3.865-14.788 7.777-18.471-2.889,6.295-6.07,14.918-6.805,23.333-.394,4.505.607,9.376-2.917,12.152-7.891.275-2.726-12.506-6.805-16.041-1.926.857-2.853,3.318-4.861,4.86-.791.607-2.235.714-2.917,1.459-3.177,3.47-5.68,11.196-4.375,16.041 .941,3.492 5.51,5.673 3.889,12.638-.473,1.77 2.368.225 1.458,2.431-4.97.952-2.138-5.906-2.917-8.75-.75-2.734-5.003-7.405-6.805-9.722 .225-5.487-1.447-12.954-1.458-19.443-.001-.848.613-2.073.486-2.917-.511-3.389-3.405-5.951-.972-9.235 7.023-2.861 14.255-5.513 19.93-9.722 .192-1.165-2.214.27-1.458-1.458 1.643-.414 2.158-2.016 4.861-2.43-1.452-1.262-3.43,1.085-5.833.486 .866-1.888 4.864-.645 5.833-2.43-2.52-1.291-6.72,1.679-9.236.486 2.551-1.338 7.296-.481 9.236-2.43-.97-1.203-4.065,1.433-5.347,0 1.353-1.078 4.901.04 5.833-1.458-.832-1.112-3.711-.178-5.347-.486-.547-.896 4.648-.195 5.347-1.458 .583-4.727-5.411-8.107-5.347-12.152 .058-3.732 3.926-5.913 8.264-7.292-.879-1.227-2.515-1.698-3.403-2.916 .972-.464 3.038,2.131 5.347,1.944 1.317-.44-.41-1.79-.972-1.944 1.836-.571 3.086.637 5.833.486 .565-1.875-3.919-2.876-4.375-5.347 2.482,1.731 4.752,3.674 7.292,5.347 4.575-1.331 8.052,2.317 11.666,2.917 3.913.649 7.703-1.858 10.694.972-1.03,1.909-3.163.025-4.861,0-1.892-.027-3.67.774-5.833.486-2.505-.333-5.05-2.4-7.777-2.916-5.4-1.022-16.897.48-16.041,7.777 1.941,1.002 4.707-.532 6.805.972 3.106,5.566 3.757,14.46-4.375,15.555 2.415-1.959 5.312-3.438 5.833-7.292 .134-2.078-1.411-2.478-2.431-3.402 .663-1.443.703-3.522-.486-4.375-1.537-.965-4.481.914-6.319-.486-1.301-1.656.095-3.863.486-5.347-2.446.507-3.856,2.748-3.889,4.375-.038,1.874 1.934,2.436 2.916,4.375 .884,1.744.785,5.761 2.917,6.319-.097,2.63-1.793,5.8-.486,8.264 .894,1.328 1.643-1.56 2.917-1.458 1.117,1.26-.989,2.244-1.458,3.403 1.851,4.298 9.863,1.931 13.61-.972 4.45-3.447 5.438-10.179 13.125-10.694 2.884-.193 5.781,1.793 8.75,1.944 6.176.316 10.533-2.703 19.93-.486-2.542,2.176-5.279.51-8.263.486-4.24-.034-8.195,1.607-11.667,1.458-3.403-.145-5.44-2.021-8.263-1.944-12.574.341-12.907,15.352-13.125,29.652 4.208-3.639 8.346-7.665 13.61-11.181 4.834-3.228 10.387-7.385 17.5-8.263 7.324-.905 15.837,2.079 21.388-1.944 1.993-.391-.252-2.001.972-2.917 1.538-.08 1.625,1.292 3.403.972 4.881,8.499 1.414,25.874 7.291,33.541 1.272,1.659 3.048,2.736 4.375,4.374 5.741,7.088 8.851,15.18 11.18,26.249 1.242-.897-.115-2.066 0-3.402 .049-.571.996-1.652.972-1.944-.284-3.451-3.6-11.065-5.347-14.097-3.43-5.95-12.261-9.634-13.125-18.472-.947-9.705-.573-18.172-3.889-28.679-.768-1.014-1.126-2.439-2.917-2.43 .496-2.278-.8-2.765-1.458-3.889-2.814-1.464-5.765-.153-8.75-.486-2.908-.324-7.098-2.226-11.18-3.889-6.491-2.645-9.974-4.017-14.096-8.75-3.431-3.938-7.598-9-7.292-15.555 2.59,6.293 5.521,12.95 10.694,17.5 2.592,2.279 9.98,5.81 14.097,7.291 1.981.713 5.539,1.74 7.292,1.944 4.127.482 7.286-1.194 10.208.486 2.949,1.696 6.477,10.056 7.291,15.555 1.784,12.044.066,27.452 10.694,33.054 5.963,6.838 7.972,17.629 11.18,27.222 2.407-5.958-2.802-11.661-3.402-16.041-.089-.648.676-1.799.486-2.431-.692-2.303-3.117-4.148-2.917-6.806 1.529-.232 1.9.692 2.917.973 .9-1.044.328-3.562.486-5.348-6.767-4.97-13.146-7.714-12.638-17.013 .204-3.737 3.399-9.217 0-12.639 3.245-1.493 7.455-.098 8.263,2.431-1.367-6.248-3.075-12.156-4.375-18.472-.134-1-1.811-.458-1.944-1.458 .178-5.742-4.789-11.539 2.917-12.152 1.991-.047 2.208,1.681 2.917,2.917 1.087-.209.197-2.396.486-3.403-2.155-3.183-8.573,1.855-11.18-1.944-2.027.458-2.71,2.363-4.861,3.403-3.076,1.487-6.507.503-6.805,4.375-.526,6.845 11.006,5.025 13.125,11.666 .034,1.979-1.796,2.092-3.889,1.944-.779-1.913 2.099-.169 1.944-1.458-1.394-5.501-13.56-4.73-13.125-12.152 .181-3.083 3.688-5.534 8.264-5.833 5.243-1.688 3.089-9.446 3.889-17.013 .51-4.825 2.476-7.954 2.917-11.18-2.712,2.31-1.643,8.402-4.375,10.694-.265-3.668 1.43-5.375 1.458-8.75-2.558,2.303-.989,8.733-3.889,10.694-.124-2.878.743-4.766.972-7.292-1.671,1.732-1.984,4.821-1.944,8.264-1.661-1.73-2.41,1.28-4.375,1.944v-4.375c-1.151.955-.989,3.224-.972,5.347-1.459.378-2.308-1.187-1.944,2.431-1.756-.995-1.111-.785-1.944.972-1.062-1.633-3.092.724-2.917-1.944-7.024,2.187-3.56,10.773-5.347,17.013-2.78.349-3.579-1.282-4.861-2.431-5.515-1.742-10.484-1.714-14.097-4.375-6.918-5.095-9.778-17.295-8.75-28.679 .543-6.012 2.04-16.807 2.917-23.818-2.447-3.704-12.783-5.019-16.041-.972-.227,1.037.694.926 1.458.972-5.402,2.199 1.527,14.745-5.347,16.041-2.785-2.887-4.252-7.089-5.833-11.18-1.497-.362-.934,1.334-2.431.972-.424-1.882 2.123-.794 1.458-2.917-.145-.99-.974-1.295-1.458-1.944-6.878,1.439-10.793,8.253-9.722,16.041 1.764-1.314 2.174-3.983 3.403-5.833 .734,1.562-1.371,4.45-2.431,5.833 .501,4.058 2.142,8.103 6.319,9.722 1.108.136 1.827-.117 1.944-.972 .67.95.681,2.56 1.944,2.917 5.884.62 10.421,1.585 13.125,5.347 2.793,3.888 2.18,10.562 6.805,13.125-6.103-.898-4.743-8.706-8.75-13.125-4.023-4.436-12.6-3.22-17.985-7.292-3.241-2.45-4.409-5.889-5.347-10.694-2.333,2.028-1.788,6.662-1.458,9.722 .681,6.314 4.396,11.097 7.292,14.583-3.285-1.414-4.856-4.542-7.292-6.805-3.019,7.012-1.061,16.244 4.861,18.471-4.447-.831-6.984-7.033-14.583-4.375-4.32,1.511-5.062,6.971-6.805,11.667 2.27.385 3.941-.776 6.319,0 1.333.435 2.541,2.417 3.889,3.402 1.637,1.197 3.499,1.286 3.889,2.917-3.975-1.428-8.709-8.922-13.125-3.889 .413.721 1.223,1.045 2.43.972-.202,1.094-2.665-.073-2.43,1.458 .963,2.565 3.549,3.397 5.833,3.403 .045,2.152-2.653,1.56-2.43,3.889 .937-.198.384-1.885 1.944-1.458-.38,2.537-2.175,3.658-1.944,6.805-.966.81-.618-.044-1.944,0-.679,1.397 1.325,2.469 0,2.917-2.838-2.373.554-8.143 1.458-10.208-.324-1.62-1.25-2.64-3.402-2.431-1.426.681.453,4.666-.973,5.347 .246,2.352-3.392.821-3.402,2.917-.616,4.505 2.295,5.481 5.833,5.833-6.833,5.095-11.06-9.752-3.403-8.75-.064-10.425-.604-20.094 6.319-25.763 3.233.17 7.236-.431 9.722.486-2.643-5.96-.042-12.805 1.944-17.5-3.768-12.839 1.991-25.312 11.18-29.651 1.447.173 2.466.774 3.403,1.458 .762-6.464 2.093-11.669 6.319-14.583 3.247-2.239 7.949-1.604 11.18-4.375-1.187-1.892-2.569-3.588-4.861-4.375-3.292.885-2.907,4.802-5.833,4.861-2.876.058-2.58-3.396-5.833-4.375-.645-2.758-2.47-4.335-1.944-8.263-.397-2.034-3.45-1.412-3.403-3.889-.183-2.126 1.552-2.337 2.917-2.916-.453,1.167-1.953,1.287-1.458,3.402-.229,1.687 2.638.279 2.917,1.458-.023,6.504 2.982,9.98 6.319,13.125 4.685-2.769 6.996-7.911 12.152-10.208 2.373-5.243 5.727-9.504 10.208-12.639-1.765-1.773-4.429,1.851-5.347-.486-4.082.984-9.421,5.004-12.639,2.43-1.406.215-2.216,1.025-2.43,2.431-.948-3.323-5.779-1.484-8.264-.486 .732-.888 2.097-1.144 2.917-1.944 9.571-.035 15.606-1.853 24.305-3.402-.924-7.343-10.798-1.203-15.069-3.889-1.323-2.173-1.137-7.428.486-10.694 1.076-2.166 3.808-3.931 4.861-6.319 1.489-3.375 1.974-7.316 4.861-9.236 1.017-.28 1.388-1.205 2.917-.972 3.619-5.941 10.729-8.391 16.527-12.152 8.384-1.433 12.45,3.286 17.5,6.319 4.587,2.756 10.218,4.214 13.124,8.263 1.639,2.283 1.659,5.36 2.917,7.778 1.743,3.35 4.816,4.324 6.319,7.777 4.182-10.887 11.358-18.78 21.388-23.818 .884-8.175-1.119-13.464-2.917-18.958-3.352-2.918-4.69-4.624-6.805-9.722-.669-1.613-1.88-3.749-1.944-4.861-.115-1.973 1.559-3.898 1.458-5.833-.241-4.608-5.66-6.104-4.861-10.208 2.172.087 4.425,1.204 5.833,2.431 1.271,1.107 3.784,4.13 4.375,5.833 .922,2.656-.076,5.802.486,8.75 .807,4.232 4.757,6.413 4.861,10.208 1.964-8.583-.039-15.544-.486-25.277-.174-3.794-.403-7.968-.972-11.666-.737-4.79-2.544-8.898-2.917-13.61-.456-5.769.11-13.264.486-18.958-.192-1.576-2.146-2.178-2.917-3.889-2.255-5.004.389-12.416.486-17.985 .153-8.75-2.249-17.765-1.458-25.763 .618-6.257 3.15-10.712 6.805-14.097 6.807-6.304 10.069,5.819 10.208,14.097 3.647-1.538 3.499-6.871 5.347-10.208 2.487-.659 6.82.045 8.75,1.458 .047,9.077 2.582,16.41.972,25.763 1.721.188 6.085-.14 7.292,1.944-2.702,14.842 3.487,30.003-.486,44.234-1.021,3.655-3.813,7.61-5.347,11.666-1.507,3.984-2.978,8.871-3.403,13.125-.553,5.542-.646,8.827-4.861,11.666-.837,13.26-5.477,22.717-5.833,36.457 11.276-.194 25.974,2.691 25.276,17.5 4.76-3.145 8.154-7.097 13.125-9.722 9.108-4.81 19.564-5.823 26.249-13.124 2.611-2.852 4.061-6.672 6.805-8.75 4.95-3.746 10.578-3.673 14.097-7.777 1.9-2.217 3.057-5.733 4.375-8.75 2.447-5.6 4.21-14.787 14.097-12.639-.217,3.062-.388,6.711-2.431,9.236 .665,9.629 1.322,19.879-4.375,24.305 .266,4.964-.052,9.346-2.43,11.666 5.094.824 10.175,3.47 16.04,3.889 7.582.541 15.386-2.924 22.36-.972 .04,2.994 2.691,3.108 2.431,6.319-.242,2.983-4.877,6.426-7.291,8.264-4.582,3.487-12.691,5.504-16.527,9.722 4.799,1.196 6.713,5.277 10.694,7.292 .388.908.812,1.78.972,2.917 5.523,1.768 8.805,5.778 11.181,10.694-.473.014-.378.595-.486.972-11.187.641-18.443-6.823-30.138-7.292-.663,6.046 9.723,5.158 10.208,11.667-2.755,1.68-5.748-.633-8.75-.972-1.354-.153-2.523.551-3.889.486-2.589-.123-6.007-1.986-9.235-2.43-1.003-.138-2.036.168-2.917,0-3.436-.657-6.473-2.619-10.208-3.889-1.35-.459-3.105-.13-4.375-.486-2.93-.822-9.174-3.86-11.667-5.833-1.549-1.227-2.257-3.227-3.889-4.375-5.587-3.933-12.292-4.314-19.443-6.319-.281,2.401 1.86,2.84 2.917,5.347 1.544,3.666 1.017,9.082 2.43,12.638 1.057,2.658 3.49,3.583 4.861,5.347-.687,3.322-3.269,2.52-1.458,6.319-6.515,6.567-17.857-1.142-24.791,3.403-2.448,1.604-3.617,4.432-5.833,6.319-1.992,1.696-5.044,2.731-7.292,3.889-2.543,1.31-4.826,2.654-7.777,3.403-.569,5.591 6.413,3.633 7.777,7.291 1.98-1.747 2.817-4.637 4.375-6.805 2.433.721.219,3.079 0,3.889-.408,1.505-.862,3.014-1.458,4.375-1.107,2.526-3.382,4.866-4.375,7.292-1.034,2.526-1.074,5.649-1.944,8.264-1.594,4.79-3.713,8.976-6.319,13.61-3.633,6.459-7.961,12.046-14.583,16.041 1.046.413 1.127,1.79.972,3.402-4.604,6.372-3.605,17.025-3.402,27.221 4.028-3.922 4.218-11.634 8.75-15.069 1.334-1.011 3.667-1.758 5.833-1.944 4.092-1.902 5.382-6.607 9.236-8.75 .068,6.254-5.925,10.58-11.18,13.125-2.857,3.3-4.583,7.73-6.319,12.152 4.38,4.904-.658,13.635-4.375,16.527 1.605,15.894 1.362,33.636 2.43,50.067 4.199-4.736 5.049-10.742 6.805-18.472 6.185-27.215 9.676-58.144 27.221-74.372-.72-4.627-1.281-9.413-4.375-11.666-.365-6.447-7.834-11.093-2.917-17.013 10.286-.007 24.179-2.271 30.137,3.889 2.094-4.799 2.21-12 .486-16.527-.853-2.239-3.298-3.298-4.861-5.347-2.113-2.769-2.441-5.509-3.889-7.778-2.094-1.957-4.494-3.607-5.347-6.805 4.41-7.749 22.458-5.108 25.763,1.944 5.709-.022 13.702,2.823 17.013,6.319 3.57,3.769-.841,10.631-6.805,12.152 .004,4.541-2.886,6.188-4.861,8.75 3.237-.06 6.081-3.102 9.236-5.347 5.23-3.723 19.374-10.098 26.735-3.403 7.558,1.192 15.334,2.165 17.984,8.263 6.789,1.476 12.859,3.669 16.041,8.75-.334,3.606-.005,4.109.486,7.291-2.588,5.189-1.945,13.61-5.347,17.985 3.703,1.645 5.415,5.279 5.833,10.208-1.118,2.313-3.398.492-5.833.486-5.743-.014-13.616,1.709-17.985-.972 .43,3.082 3.494,4.167 4.861,6.319 2.322,3.659 2.553,7.989 2.43,13.611-.152,6.974 1.241,13.826-.486,20.416-.291,1.112-1.369,2.118-1.458,3.403-.331,4.823 2.594,10.879-.485,14.582-2.806-.048-3.82,1.971-5.834,1.944-4.032-.052-6.333-5.027-11.666-4.374-.971-1.621-2.548-2.638-2.916-4.861-6.149-6.441-17.384-6.958-22.847-14.097-1.568-2.049-1.516-4.575-3.889-6.319 .397,9.377-.634,20.475-6.319,25.277-4.271,1.646-8.673.772-12.638,1.458-6.968,1.204-11.65,5.488-17.013,7.777-1.116-.829-2.088-1.801-2.917-2.917 .038-2.761 2.854-4.682 3.889-7.291 2.727-6.871 1.356-14.495 4.861-20.416 2.544-4.297 6.829-5.14 11.18-9.235 .355-4.034 3.362-6.33 2.917-9.722-.823-6.263-14.342-5.589-10.694-15.069-6.319-1.296-10.433-4.798-14.583-8.263-17.978,17.831-22.635,48.983-27.221,80.205 9.613-.919 15.902-5.161 18.958-12.638-2.413-1.43-6.08.444-7.777,2.43-1.999,2.338-1.325,6.502-3.889,7.777 .633-6.987 6.054-13.806 13.125-11.18 1.089,1.988-1.34,3.453-2.43,4.861-2.224,2.871-3.856,4.628-6.805,6.805-1.63,1.203-2.669,2.812-4.375,4.375-1.395,1.278-3.724,2.204-4.861,3.402-1.745,1.839-2.789,4.907-4.375,7.777-2.488,4.502-5.822,7.818-6.805,14.097-.501,3.204-.211,7.473 0,11.181 .369,6.481 1.025,13.904 1.944,19.443 .875,5.272 2.42,12.808 2.917,19.93 1.42-1.431 1.42-3.558 2.431-5.833 1.109-2.498 3.464-4.93 3.889-8.75 .417-3.753-1.631-7.534-.972-10.693 1.311-6.29 10.244-9.022 15.555-4.375-.137,1.97-3.336.877-3.889,2.431 1.554,6.508 1.316,14.219-3.889,16.526-1.995,5.783-1.246,14.31-7.292,16.041-1.153,2.574-2.308,5.146-4.375,6.806 .996-5.161 4.18-8.135 7.777-10.694 1.583-3.97.585-8.356 1.944-11.18 1.184-2.46 4.071-2.917 4.861-4.861 .756-1.861.695-3.985.486-5.833-.259-2.295-3.791-7.982 1.944-8.749-4.861-3.182-10.676-.707-11.666,3.889-.571,2.65 1.284,6.745.972,10.208-.215,2.391-1.578,3.565-1.458,5.833-4.041,3.72-5.058,11.443-6.319,16.526-1.699-1.703-.723-6.082-1.458-8.749-4.451,5.449.923,9.645 2.431,14.097 1.577,4.655.501,10.341.972,15.555 .165,1.825.791,4.817.972,8.264 .684,13.012-.245,28.06 0,39.373 .048,2.207.814,4.585-1.458,6.319 .019-17.804.985-35.385-.973-52.012-1.216-.082-1.521.747-1.944,1.458-.392-3.249 1.601-4.148 1.944-6.805 .442-3.414-.038-8.575-.972-11.666-.764-2.527-3.448-4.342-3.889-6.806-.63-3.523 1.151-5.822.972-8.75-6.577,3.365 2.347,14.353 1.944,22.36-3.828-1.366-6.145-7.115-7.777-12.152-.179-1.475 1.583-1.009 2.431-1.458-2.766-8.13 5.931-10.632 2.917-18.958-2.716.417-8.136,3.912-8.264,8.264-.061,2.062 1.519,3.02 1.944,5.348 .073,4.377-3.731,5.45-3.889,8.749-.142,2.976 3.274,5.933 4.861,9.722s2.53,7.289 2.917,11.667c1.564,1.677 2.014,4.467 1.944,7.777 1.244-.377.108-3.133 1.945-2.917 .055,2.429-.073,4.863 0,7.291 .062,2.072 1.74,4.95-.486,5.834 .238-2.289-.876-1.176-.486.485-1.462.49-.861-1.083-.972-1.944 .276,7.772-2.413,16.503-2.43,23.818-.004,1.776.007,4.779.486,6.319 1.106,3.554 5.824,4.755 4.861,9.236-1.554-.553-1.248-2.965-2.43-3.889-.66.15-.403,1.217-.486,1.944-2.756-.373-.185-3.64-1.944-4.375-1.087.209-.197,2.396-.486,3.402-1.44-.828-1.195-3.342-1.944-4.861-1.097.362-.19,2.727-.486,3.89-1.09-.53-.854-2.387-1.944-2.917-.572,5.153 2.963,10.29 5.833,13.61 .556-2.36 2.375-3.458 4.375-4.375 .672-1.271.254-3.635 1.944-3.889 1.605,3.434-2.152,4.713-2.917,7.292 .71,1.72 2.577,2.283 3.403,3.889 .753,5.139-3.076,10.157-2.431,14.582 .36,2.472 1.475,3.169 2.917,5.348-4.105.217-4.925-2.853-4.861-6.806-.748,1.521-.774,3.763-.972,5.833-1.618-3.208.58-12.357-.972-17.013-.794,8.462-.566,17.96-.972,27.221-.085,1.936 1.082,5.21-1.458,5.833v-18.471c0-5.739 1.256-12.602 0-17.986-1.083-4.643-7.522-7.559-6.319-15.555-2.274-2.183-4.257-3.42-4.861-7.291-.324-2.075.292-4.176 0-6.319-.248-1.817-1.855-3.386-.973-4.86 7.068-.101 6.034,7.9 10.694,10.207 1.782-7.092.966-14.952 0-20.901-.407-2.504-1.153-5.749-2.431-7.777-1.183-1.878-3.583-2.328-4.375-3.889-1.541-3.039.262-5.73-.486-10.208-.323-1.935-1.907-3.504-2.43-5.348-1.054-3.71-.614-7.558-2.431-11.18-3.656-1.589-8.54,1.06-12.152-.486-1.129-1.188-1.276-4.108-.486-5.833 2.788-.843 1.833,2.057 3.889,1.944 5.277-1.612 11.923-10.355 16.041-1.944 3.631-3.959-2.058-12.65 2.43-16.527-.652-7.429-1.559-16.756-2.917-24.304-1.361-7.57-1.644-13.724-5.347-18.472-3.883-.33-6.014-2.411-9.235-3.403-.223-1.721-1.082-2.807-.972-4.86-3.447-1.9-7.342-3.352-9.236-6.806-4.891-.456-6.109-4.585-9.722-6.318-1.6.02-2.42.82-4.375.485 .779-2.947 3.64-3.813 5.347-5.833 4.129.732 6.033,3.688 10.208,4.375 1.562,3.623 6.603,3.768 8.264,7.291 1.815-.702 4.349.398 7.292,0-2.787-14.712-7.549-27.449-17.5-34.998-4.611-8.513-2.96-23.289-6.319-33.054-3.648.799-5.413,3.315-9.236,3.889-5.611.841-11.628-1.157-17.013,0-14.174,3.044-22.728,13.703-31.596,21.875-2.932,5.007-5.027,10.852-10.208,13.61 3.931-7.134 10.542-12.865 11.18-22.847 .283-4.436-.851-8.907.486-14.097-2.397-.443-4.798,3.296-6.319,5.347-7.682,2.078-19.064,4.192-17.499,13.611 .564,3.396 4.042,4.63 5.347,8.264 .105,4.586-.544,9.933 1.942,12.147zm107.912-340.75c-.146-1.281.673-1.596 1.944-1.458-3.164,9.327.331,18.979 0,28.679-.198,5.818-2.192,11.712-.486,16.041-.196.938-2.226.042-1.458,1.944 1.088,1.103 2.004-1.639 2.917.486 1.148-1.499.059-3.306 0-4.861-.369-9.79 1.657-20.794 2.43-31.596 .413-5.764-.665-11.51 0-16.527 .303-2.286 2.412-5.397.972-5.833-4.187,1.973-6.731,8.172-6.319,13.125zm12.153,4.86c-.703-5.24-.44,5.229-.486,5.833-.412,5.346-3.61,12.778-2.917,16.527 1.827-6.76 4.226-12.948 3.403-22.36zm-3.403,16.527c2.365-7.879 1.353-15.408 1.458-23.332 .042-3.199 2.271-8.906-1.944-9.236-2.166,6.31-.92,13.5-1.458,20.902-.916,12.576-5.24,27.47 0,36.943 .809-8.366.114-19.181 1.944-25.277zm9.236-22.36c-.723,1.363-2.206,2.062-2.917,3.403-1.814,3.42-.857,8.369-1.458,13.125-.467,3.691-3.279,7.724-1.458,11.666 1.003-1.427-.53-5.391 1.458-5.833-.64,7.329-1.306,15.027.972,21.388-.763-10.32.784-18.761 1.944-26.735 .731-5.028.26-10.01 1.458-13.611 .996-2.993 4.504-6.762 2.43-10.208-1.655,1.972-1.195,4.477-2.429,6.805zm3.402,35.485c1.808-14.063 4.058-26.483 2.431-41.804-2.279.313-1.631,3.554-1.944,5.833-3.302,6.013-4.119,15.411-5.347,24.305-1.359,9.843-.389,20.41 0,28.679 1.904-4.577.534-12.429 2.431-17.013 .308,1.637-.626,4.515.486,5.347 1-5.644.807-12.48 2.431-17.5 .44,4.337-1.814,8.55-.488,12.153zm5.347-14.583c.861-5.279 1.844-13.061-.486-17.5 .383,6.438-1.351,12.269.486,17.5zm.972,3.889c-.373-1.193 2.327-2.803 0-2.917 .135.853-1.368,2.426 0,2.917zm1.945-.486c-.966,3.449-.571,8.131-1.458,11.667-1.21,4.822-4.346,8.906-5.347,14.096-.933,4.833-.208,9.956-.486,15.555-.414,8.333-.99,16.167-2.43,23.818-.588,3.125-2.349,8.28 1.458,9.722-.681-18.065 7.1-31.312 9.236-48.123 .076.572-.083,1.379.486,1.458 .616-5.557-.495-11.691 0-17.499 .367-4.312 2.049-8.551.486-12.152h-1.458c-.028.621-.624.673-.487,1.458zm-11.666,27.707c-1.871,12.177.178,25.122.486,37.915 3.193-11.552.973-28.517 2.917-41.318 2.42-6.655 7.037-13.701 5.347-22.846-.487,11.181-5.998,17.335-8.75,26.249zm-8.75-6.319c-.554,2.606-3.794,4.83-4.375,7.292-2.654,11.252 3.466,20.77 2.917,33.054 1.362.242 3.707-2.194 4.375-3.889 .762-1.933 1.609-9.281 1.458-10.208-.36-2.214-3.5-4.162-3.889-6.805-.396-2.695 1.243-6.226 1.458-9.236 .541-7.54-1.136-15.33-.972-22.846-.107-.379-.407-.565-.973-.486-1.476,4.179 1.031,8.281.001,13.124zm23.332,21.388c3.484-8.826 1.601-23.085.486-33.055 .589,13.939-1.042,27.215-3.889,37.916 1.819-3.852 2.81-8.533 4.375-12.639 .526,3.13-1.736,6.025-.972,7.778zm-17.985-18.472c.064-.639.074-3.517-.486-1.944-.065.639-.074,3.517.486,1.944zm-12.153,1.945c-3.621,10.972 1.359,22.186 2.431,32.568 1.208,11.694.973,22.753 2.43,33.54 4.313-6.379-1.499-18.211.973-24.305-1.271.137-2.091-.177-1.945-1.458 .117-15.341-5.509-26.104-2.43-41.804h-1.458c-.001.487-.001.972-.001,1.459zm11.667,3.888c.668-.624.846-2.907-.486-2.917 .279.855-.588,2.857.486,2.917zm.486,13.611c.731-2.841 1.679-8.033.486-11.18 .279,2.396-3.052,8.249-.486,11.18zm-2.43-2.43c.078-.338-.17-2.829-.486-1.458-.427,1.85.26,2.434.486,1.458zm17.985,7.777c-.186-1.672 2.441-3.03.972-4.375 .194,1.68-2.104,3.368-.972,4.375zm-20.416,44.234h-1.944c-.28,3.364-1.375,2.894-1.944,5.833 .495,1.797 4.147,4.438 1.458,6.319-1.346-.922-.808-3.729-2.917-3.889-.978,1.991 1.557,4.129 1.944,6.319 .708-.95.328,2.91 1.458,1.944 .356,3.111-1.284,4.225-1.458,6.806 3.729.897 2.472-3.174 2.917-4.861 1.104-4.189 2.311-8.584 4.375-11.18-.407-1.452-1.91,2.537-2.917.486 .45-2.87.928-4.828-.972-5.347 2.98-15.721 8.501-34.417 5.347-50.553 .648,16.721-4.487,31.343-5.347,48.123zm14.582-20.416c.189-8.886 3.404-17.333 4.861-23.332-.126.756-1.066.337-1.458,0-1.243,7.346-5.047,14.719-3.403,23.332zm-15.554-5.833c.771-2.478 3.872-5.191 3.403-7.292-1.319,1.931-4.693,4.372-3.403,7.292zm1.458,9.236c-.254-3.261 3.026-7.87.486-10.208-1.436,2.596-2.054,7.194-.486,10.208zm7.778-.972c-1.44-2.711.842-6.385-.486-8.75-.228,2.133-2.712,7.811.486,8.75zm-24.305-2.917c-.649-.485-.955-1.314-1.944-1.458-.206,1.071 1.456,2.681 1.944,1.458zm96.732,47.637c5.232-1.897 10.941-3.318 17.986-3.402 4.412-2.539 1.974-7.318 2.916-11.667 .622-2.869 3.574-4.446 4.375-6.805 2.685-7.913-3.023-15.887 1.458-21.388-4.185.567-2.944,5.135-3.402,7.291-1.742,8.205-5.397,14.124-11.18,18.472-2.991,2.249-6.688,4.422-10.208,6.805-3.427,2.321-6.876,5.245-10.208,7.292-1.275.783-3.164,1.147-4.375,1.944-2.192,1.441-3.491,3.326-5.347,4.375-2.942,1.662-6.209,3.114-9.722,3.889-1.727.381-3.562-.02-5.347.486-6.218,1.76-11.006,7.096-15.068,11.666 2.688.066 4.125,1.384 6.319,1.944 5.064-3.022 11.238-1.811 17.013-1.944 .776-.018 1.602-.914 2.431-.972 3.513-.246 7.264.736 10.694.486 10.442-.76 20.289-4.077 30.137-6.805 9.339-2.587 17.78-2.53 24.791-6.319-6.498.229-12.349,2.459-18.472,3.403-3.438.529-6.87.185-10.208.972-2.19.517-4.38,1.815-6.805,2.431-11.634,2.955-26.257,3.671-40.346,4.375-2.005.1-3.89-.37-5.833,0-1.928.366-3.744,2.532-5.833,1.944 7.911-5.715 19.062-2.912 28.193-3.403 10.4-.56 20.065-3.777 30.138-6.319 7.986-2.016 15.347-2.137 22.846-3.403 7.641-1.29 12.362-4.276 20.416-3.889-2.278-3.866-7.513-1.102-12.152-.486-9.412,1.25-15.749-1.407-22.847-2.43-19.862-2.864-33.329,12.864-53.956,10.208 10.472-2.167 22.517-2.76 30.138-7.778 .779-1.913-2.099-.169-1.944-1.458 3.64-1.71 5.646-7.635 9.722-7.292-.472,2.148-2.736,3.059-2.43.972-1.337,1.84-1.152,2.847-1.945,4.375 .134-.441 1.811-1.633 1.945-.486-1.758.511-2.693,1.845-3.89,2.916zm21.388-34.998c-2.315,5.789-3.898,11.598-8.75,15.069-1.428,1.022-3.426,1.029-4.86,1.944-3.002,1.916-4.973,4.796-6.806,6.806 8.167-6.254 20.286-11.148 20.416-23.819zm-59.303,43.748c6.288-3.143 15.278-3.134 20.416-6.806 1.214-.867 1.953-2.625 3.403-3.889 3.533-3.08 6.238-4.727 8.75-8.75 1.487-2.382 1.999-5.428 3.889-6.805 2.499-1.821 7.677-1.229 10.694-1.944 4.181-2.818 5.418-7.522 7.777-12.152 .964-1.891 2.771-3.241 3.403-4.861 1.575-4.038.855-9.153 4.86-11.667-8.924,5.003-7.182,16.456-14.097,22.847-1.305,1.205-3.77,2.11-5.347,2.917-2.031,1.038-4.412,1.325-6.319,2.43-2.858,1.657-5.186,5.453-7.292,7.777-2.22,2.451-3.957,4.591-6.805,6.319-7.865,4.773-16.562,6.649-23.333,10.694-4.139,2.473-6.499,4.484-9.236,7.778-1.179,1.418-4.553,3.959-1.944,5.833 3.943-3.981 6.727-7.495 11.181-9.721zm63.678-53.956c1.837.054 2.613-.951 2.916-2.431-1.685.098-3.159.405-2.916,2.431zm-101.593,7.777c1.475-.891 4.167-5.189.972-6.319 .013,2.136-1.979,4.805-.972,6.319zm3.888,1.458c-.53,5.467-3.354,10.889-2.43,15.555 .699-7.614 5.348-15.747 3.402-22.846-1.703,1.522-.724,4.734-.972,7.291zm-20.901-1.944c.522,4.35.098-3.299-.486-.486 .043-.211.462.292.486.486zm-3.889.486c-.391,2.943 2.228.324 0,0zm19.444,8.75c.416-3.311 3.277-4.176 3.402-7.777-.107-.379-.407-.565-.972-.486-1.515,1.733-3.139,5.923-2.43,8.263zm-15.069-4.861c-.035-1.424-.176-2.741-1.944-2.431 .274,1.185.416,2.501 1.944,2.431zm-1.944,2.917c.048-1.507-.22-2.696-.973-3.403-.077,1.536-.017,2.933.973,3.403zm17.013,8.749c1.557-1.37 2.131-6.281 1.944-7.777-.619,2.307-3.195,5.217-1.944,7.777zm-12.639-2.916c.83-.549-1.698-4.416-2.43-3.403 1.701.865 1.256,3.127 2.43,3.403zm1.944,1.944c-1.423,3.179 1.818,2.992 0,0zm13.125,8.264c.458-.771.5-3.874-.486-4.375-.114,2.157-.043,5.265.486,4.375zm76.802,0c.836.026 1.247-.375 1.458-.972-.835-.027-1.245.373-1.458.972zm-82.149,10.208c4.603.066 1.881-7.192 3.402-10.208-.107-.379-.407-.565-.972-.486-1.304,3.07-1.927,6.822-2.43,10.694zm-21.388,58.817c-3.849-7.979-5.47-18.187-5.833-29.651-1.029-3.089-5.615-5.924-7.778-9.236-1.775-2.718-2.192-7.297-4.861-10.208-2.371-2.586-8.842-4.811-11.666-6.805-1.329-.939-2.336-2.203-3.403-2.917-6.335-4.243-12.458-2.939-17.013-.486-5.122,2.758-8.495,5.457-11.666,9.236-.639.496-1.792.477-2.43.972-2.505,2.775-3.397,5.615-5.833,9.722-2.536,4.276-5.19,7.128-4.861,13.125 2.616,5.067 8.19-.451 13.125,1.458 6.793,4.932 4.941,17.582 11.18,23.332 2.661,2.453 6.263,2.982 11.666,3.889-.554-7.021-.808-17.55 7.292-17.499 .437,1.345-.999,4.563.972,4.375 3.381-1.123.168-6.072.486-8.75 1.24-.056 2.501-.091 2.43-1.458-.548-1.415-4.416-2.041-3.403-3.403 2.731,1.968 5.434,3.964 7.292,6.805-2.691-.48-1.241,7.108-2.917,9.236-.238,1.534.876,1.717.486,3.403-.313,1.435-3.136,1.968-1.944,3.402 .524,1.42 2.314,1.574 4.375,1.458 1.616-1.598 2.079-3.601 1.458-6.319 .916-2.412 3.09-6.21.972-8.75 2.132-.622.422-5.086.972-7.292 .859-.437 1.419-1.173 2.43-1.458 2.695.708 1.845,4.961 1.944,8.263 2.064-.443 2.447.793 2.917,1.945-.086,2.182-1.011,3.525-1.944,4.86 2.575,1.801 3.234,5.516 7.292,5.833-.039-1.906-2.471-1.418-2.43-3.403 3.149.855 2.651,4.986 6.319,3.403-1.543-.58-3.621-3.163-2.917-4.375 1.062,1.206 1.495,3.042 3.403,3.403 .146-1.475-2.553-2.589-.972-3.889 1.738,2.474 3.286,5.14 4.86,7.779zm93.816-59.79c2.983-.575 1.218-2.34 0,0zm-44.721,9.236c-1.942-5.528-9.092-7.228-14.583-7.777-19.392-1.939-39.769,12.44-38.887,32.568 .051,1.161.787,2.362.972,3.889 .678,5.565-.696,11.693 2.431,14.097-.505-2.486-2.211-8.155 0-10.208-.106,4.319.216,8.209 1.944,10.694-.057-4.426-1.898-9.615 0-13.125 .059,4.266.181,8.408 1.458,10.208 .53-3.521-1.132-9.233.973-11.18-.456,7.329.033,14.302 2.43,19.93-.809-6.264-3.792-14.924-.486-20.902 .226,4.464-.911,10.662.972,14.583 .112-3.522-1.381-8.007 0-11.18 1.414.369-.441,4.005.973,4.375 1.316-.542 1.573,1.076 2.43,2.431 4.218-10.527 11.135-18.354 22.36-21.874 3.345-3.254-1.357-9.782.486-14.097 3.568-8.354 17.325,1.586 14.097,10.208 3.76-2.09 3.832-8.651 2.43-12.64zm106.94-1.458c-.706.266-2.512-.568-2.43.486 .706-.266 2.512.568 2.43-.486zm-16.527,9.236c-3.15.869-6.989.774-10.694,1.458-3.286.606-6.387,2.116-9.722,2.917-7.211,1.73-15.059,2.791-21.874,3.889-4.991.804-11.583,1.031-17.013.486-6.141-.616-15.893-2.592-18.472,1.944 7.424.361 14.191-.488 20.902,0 11.903.866 22.693,4.538 33.54,4.375-.844-.174-3.7-.774-2.43-1.458 4.655.53 8.902,1.028 12.152-.972-2.431-.915-5.693,1.781-6.319-.486 5.089-.037 10.479-1.019 16.041-.486 3.124-1.355 5.472-4.208 8.749-5.833 2.622-1.3 5.408-1.721 7.777-3.403 .98-.695 1.831-1.538 2.917-2.43 2.72-2.236 5.477-3.737 6.319-7.292-5.227-.976-11.819.319-15.555,3.402 1.838.194 4.173-1.627 5.347-.486-3.87.45-7.46,3.214-11.665,4.375zm-101.107-6.806c-7.683-.097-2.046,8.998-3.889,14.583 2.822-.743 6.301-.828 9.236-1.458 3.941-5.528-1.316-13.074-5.347-13.125zm96.246,5.833c2.005-1.083 7.751-.987 7.292-2.917-1.795,1.294-7.17,1.569-7.292,2.917zm-83.607.973c.132-.662-.301-1.898-.486-.972-.133.661.301,1.897.486.972zm-1.459,3.888c.333-.487 1.461-3.67.486-2.431-.333.487-1.46,3.671-.486,2.431zm60.276.972c4.247-.291 7.743-1.331 10.208-3.403-3.729.809-7.669,1.406-10.208,3.403zm-13.611,2.431c3.391-.659 7.299-.802 10.208-1.944-2.409-.198-8.219.13-10.208,1.944zm-26.249,19.929c-1.561-6.316-2.722-10.951-7.292-14.583-11.148-8.861-32.752-5.267-42.776,4.375-7.692,7.399-8.926,16.39-13.611,26.735-.812,1.831 2.261,2.213.973,2.917-3.52-.789-7.143-1.499-9.236.972 .266,8.363 10.449,12.396 17.013,13.125 9.107,1.011 21.392-1.838 28.679-8.264 3.477-3.065 4.771-5.773 7.777-7.292 7.346-3.71 14.98,2.856 22.36-1.458-.867-3.385.113-3.837 1.458-5.833-3.411-2.857-4.291-6.425-5.345-10.694zm-5.833-14.582c.854-.28 2.856.587 2.917-.486-1.081-.211-2.636-1.117-2.917.486zm7.777-.487c-.559.259-.32.32.486.486 2.784.573 9.182,1.914 12.152,1.458-4.396-.194-7.886-3.703-12.638-1.944zm57.359.973c1.837.351 4.937-.536 3.889-1.458-.656,1.126-3.656-.092-3.889,1.458zm-43.748-.486c-3.113-.561-1.068,1.485 0,0zm46.664,2.43c2.798.119 5.844-.01 6.806,1.944-2.414-.513-6.556-1.857-9.235-.486 1.836,1.242 5.431.727 6.805,2.431-8.378-1.831-21.073-1.934-29.165-2.431 5.418,2.684 15.113,1.089 20.901,3.403-3.834-1.083-7.46-.224-11.18-.486-7.966-.562-15.042-4.843-22.846-3.889 2.085.832 4.21,1.623 6.805,1.944 7.222,7.588 20.006,6.373 32.568,7.777 9.6,1.074 18.273,7.05 26.248,6.805-2.032-4.124-4.96-7.354-9.722-8.75-.79-.992-1.577-1.987-1.944-3.402-1.504-.927-4.087-.774-5.833-1.458-.239-1.536 2.412-.18 1.944-1.944-1.558-2.811-9.784-5.417-12.152-1.458zm-13.124,10.208c-6.775-.671-12.622-2.685-17.5-5.347-1.469-.802-2.93-2.827-4.861-1.944 4.839,2.614 8.927,5.98 14.097,8.263-5.803.129-8.72-5.21-12.638-5.347 .719,1.886 5.236,2.525 4.861,3.889-2.823-1.39-6.623-1.803-6.805-5.833-6.146-2.93-16.15-4.588-23.333-4.861 13.989.703 18.52,12.742 29.166,15.069 .986.215 1.874-.305 2.917,0 3.693,1.08 7.325,3.818 12.152,4.375 1.491.172 2.926-.297 4.375,0 2.447.502 4.279,2.251 6.805,2.431 4.024.286 7.569-.881 10.694.972-.681-3.532-4.252-4.174-7.291-5.347-.688-4.497-5.331-5.04-9.722-5.833 .441,2.984 7.482,5.967 3.889,8.263-1.804-3.382-4.268-6.104-6.806-8.75zm3.403-10.694c-3.114-.561-1.068,1.485 0,0zm-2.916.486c-.854.279-2.856-.588-2.917.486 .854-.279 2.856.588 2.917-.486zm5.833,1.458c1.22-.4 4.186.945 3.889-.972-.182-.461-3.556-.023-3.889.972zm-144.856,16.528c1.788-3.533.605-7.562.972-11.667-.107-.378-.407-.565-.972-.486 .447,4.181-.682,9.355 0,12.153zm-8.749-2.431c.232-1.862 2.004-6.023-.486-6.319-1.008,1.428.604,5.618.486,6.319zm-35.485-.486c.488.646.46,1.809 1.458,1.944 .375-1.242-1.902-2.234-.486-2.916 1.707,1.43 3.758,6.954 1.944,8.75-.067-2.019-.32-.098-.972,0-1.672-1.569-.618-5.864-3.403-6.319-1.702,2.545 3.575,6.378.972,8.264-.685-2.07-.942-4.567-2.43-5.833-2.769,1.494 2.179,4.465.972,5.833-1.898-.208-.929-3.284-3.402-2.917-.51,2.473 3.039,3.417 1.458,5.347-.641-1.465-1.213-3-2.917-3.402-3.004,1.979 4.457,3.991 1.458,5.833-.65-1.942-1.604-3.582-3.889-3.889-.16,2.123 3.77,2.687 2.43,4.375-1.394-.261-3.155-4.675-4.375-1.944 2.635.444 3.959,2.198 5.347,3.889 4.543-2.911 6.164-8.744 14.583-7.778-.545-3.181-2.303-5.15-3.403-7.777-.301,1.319.617,3.858-.486,4.375-.705-2.86-1.137-5.993-1.944-8.75 1.237-.529 1.885,2.276 1.944,0-1.995-1.331-4.426,1.065-4.859,2.915zm26.735,6.806c.715-3.012 3.512-3.941 3.402-7.777-2.407,1.001-4.576,4.81-3.402,7.777zm19.93-3.889c.414-1.369 1.57-1.995 1.458-3.889-1.765-.279-1.764,3.707-1.458,3.889zm-15.069,4.861h3.403c-1.477-2.036-.487-3.578-2.431-4.861-.809,1.945-3.855,1.653-3.889,4.375 1.853,1.61 2.92-.679 3.889-1.458 .557,1.528-.763,1.18-.972,1.944zm11.666-2.431c.142-.298 1.209-1.871 0-1.944 .465.905-1.456,1.624 0,1.944zm0,3.889c.2-1.129 3.087-2.054 1.458-3.402-.408.919-2.343,2.797-1.458,3.402zm19.444,5.833c-1.596-5.047-9.4-3.886-13.125-6.805 2.344,4.3 10.105,3.181 13.125,6.805zm-19.93-2.43c1.098-.865 3.547-2.91 2.917-3.889-.463,1.5-3.66,2.796-2.917,3.889zm-14.096,4.86c3.416-.251 4.516-7.15 1.458-8.264-.953,2.289-1.189,5.293-1.458,8.264zm-11.181-2.43c-1.766-.588-2.961-1.079-4.375-1.944-1.546-.946-2.684-2.157-3.889-2.43-7.471-1.695-10.808,3.493-14.097,8.264 6.35.238 11.567-1.22 16.527,0 1.842.453 3.081,1.888 4.861,1.944 3.362.105 6-2.545 9.722-2.431-1.692-2.797-5.338-2.266-8.749-3.403zm43.263,0c-1.217.083-1.522-.747-1.944-1.458-3.229-.012-5.419-1.062-8.75-.972-.898-.43-2.605-2.536-3.402-1.458 3.345,3.366 10.215,3.257 14.096,3.888zm-16.528-1.458c.518.562 2.239.178 2.917-.486-.966-.006-.618-1.326-1.944-.972 .145.955-.657.963-.973,1.458zm-11.179,3.888c.38-.337 1.082-2.712 0-2.917 .133.853-1.37,2.426 0,2.917zm21.387-1.944c2.104.019 4.454,2.33 5.833,1.458-3.972-2.952-12.184-1.982-16.527,0 3.767-.284 7.139-.963 10.694-1.458zm-17.499,8.75c-2.861-2.054 1.195-4.29.972-6.805-1.017-1.06-1.388.243-2.917,0-1.765,3.258-1.354,8.691-6.806,8.264 .002-.488-.394-.579-.486-.972-.244-3.484 3.03-3.451 2.917-6.806-3.119,1.616-6.78,1.833-10.208,2.917-3.894,1.231-10.342,5.614-13.125,8.263-5.696,5.423-4.9,15.303-6.319,26.249 1.946-1.456 1.444-5.361 2.917-7.292-.526,3.233-.355,6.739 0,9.236 .827-.956.559-3.006 1.458-3.889 .506,1.992-1.497,3.975 0,5.347 .313-1.793.499-3.714 1.458-4.861 .64,1.507-1.441,2.696 0,3.403-.354-.794.966-2.114.972-.972-.075,3.335-2.468,6.92-.972,10.208 .533-6.92 3.347-11.56 5.833-16.527-.48,2.607-2.715,6.022-1.944,8.264-.354-.794.966-2.114.972-.972-1.08,3.133-1.208,7.217-1.944,10.694-.109.827.548,1.203.486,0 .778-3.273 1.391-6.711 1.944-10.208 .622.026.673.623 1.458.486 2.131-8.402 7.334-16.321 12.638-19.93-8.782,8.717-14.286,20.712-15.555,36.943 2.246-1.505 1.431-4.292 1.944-6.319s1.564-4.486 2.431-6.319c5.767-12.207 14.686-19.993 21.874-30.138 5.606-6.222 13.626-10.03 21.874-13.61-15.026,1.825-22.119,11.583-32.082,18.471 7.375-7.37 15.443-14.047 25.763-18.471-11.688,2.409-19.134,9.059-27.221,15.068 3.153-3.979 7.979-6.282 11.668-9.722zm8.75,1.944c-7.079,4.643-13.46,13.909-18.958,19.93-3.944,4.32-5.576,7.339-8.75,13.125-2.832,5.161-5.075,8.69-4.375,13.611 .836.191 1.246-.722 1.458,0-.684,3.043 1.534,8.987-1.458,9.722-3.84-1.993-6.557-5.109-5.833-11.666-3.087-.316-3.575-3.231-4.375-5.833 .448,1.79-2.564.884-2.917.486 .108,10.949 4.396,24.412 17.013,22.846-.248-3.647-3.327-7.035-1.458-11.18-.034,1.817.781,2.784 1.944,3.403 .083-.728-.173-1.794.486-1.944 .814.806.387,2.854.486,4.375 2.356.473-.185-2.716.972-2.43 .486,1.434 1.069,2.017 1.944,1.944-.266.706.568,2.512-.486,2.431-.076-.572.083-1.38-.486-1.458-.022,3.056-2.186,3.972-2.917,6.319 2.16,1.406 5.176,1.954 7.292,3.403 .335-4.062-.822-6.632-.486-10.694 3.431-4.347 7.576-7.979 9.235-14.097 7.958-2.736 13.395-7.994 19.444-12.639v-3.402c3.06-3.566 7.375-5.254 8.264-11.18 .522-3.484-.376-7.413 0-12.152 .539-1.778 1.891-3.494.972-5.347-1.527-.809-1.986,1.808-2.431.486-1.038-.993.137-1.923.486-2.917-1.801-.126-3.007,1.89-1.944-.486-5.018,1.297-9.327,2.856-13.122,5.344zm3.888-8.264c-1.95.333-4.33,2.78-6.319,1.458 1.242-.216 2.235-.682 2.917-1.458h-4.375c-.116,1.991-1.651,2.562-1.944,4.375 3.218-1.161 8.371-2.964 9.721-4.375zm3.889.973c1.206.071 2.359.09 2.431-.973-1.208-.073-2.018.252-2.431.973zm-49.581.486c-4.71.077-15.762,1.131-19.444,2.917-5.65,2.74-8.324,9.739-6.319,17.013 2.07-8.258 16.002-11.058 23.819-6.319 2.485-5.455 8.189-7.69 12.638-11.18-2.911-1.192-6.814-2.495-10.694-2.431zm25.276,5.347c1.516,0 3.585-3.889 1.945-3.889-.009,1.936-2.488,1.402-1.945,3.889zm118.12,5.833c-2.172-3.281-6.82-6.338-12.638-6.805-4.964-.399-9.558.476-9.722,3.889-.154,3.204 3.298,3.362 4.861,5.833 .925,4.06 3.997,7.711 6.319,10.208 3.066,3.296 3.002,7.748 2.917,14.097-.03,2.24-1.2,5.808.972,6.805 1.606-.639 1.11-2.154 1.458-2.917 3.324-7.277 16.505-5.02 15.069-14.583 4.344-1.327 7.75-3.592 8.264-8.75-3.504-4.921-9.24-7.611-17.5-7.777zm-83.121,11.18c.322-1.299.204-3.037.973-3.889 1.072,9.174-5.259,10.945-10.208,14.097 3.078,5.709 11.564,21.68 3.889,27.708-2.119,1.664-5.191.381-7.777,1.944v3.403c4.296,2.432 8.035-.169 9.722-2.917 3.736-6.086 3.587-22.052 3.889-27.707 .689,5.79.58,12.95.486,17.499-.111,5.363-3.081,9.466-3.889,13.125 .894-.889 1.643-1.922 2.917-2.431-.208.926-1.047,1.221-.972,2.431 8.252.682 13.933-.699 17.985-4.375 9.654-8.756 18.814-27.627 17.5-43.748-5.214.677-4.875-4.199-8.264-5.347-2.988.011-2.488,6.75-4.861,4.375-.28.855.587,2.856-.486,2.917-1.493-2.234-2.371-5.083-4.375-6.806-7.186.219-11.212-2.723-16.041-4.861-1.214,4.567-.815,10.506-.488,14.582zm-80.691-5.833c-5.845-.407-5.885,11.297-.972,13.611 2.015-2.846.505-9.217.972-13.611zm118.12,6.805c.605-1.358 2.752-3.705 1.458-5.347-1.145.817-2.887,3.569-1.458,5.347zm54.442,17.013c-4.177,4.897-10.523,7.624-12.152,15.069 6.024,5.687 13.875,1.799 19.443.486 1.677-.396 3.587-.108 5.347-.486 4.159-.893 8.097-2.544 12.152-2.917 2.104-.193 4.157.236 6.319,0 5.637-.614 10.57-4.05 16.526-1.458 1.94-1.3 3.416-3.066 5.834-3.889 4.324,2.157 5.663,7.299 12.152,7.292 1.342-2.499-.618-5.405 0-8.75-3.123-4.493-8.809-6.422-15.069-7.777-2.729-3.473-5.031-6.55-9.722-7.292-1.515-.239-3.303.376-4.861,0-1.87-.452-3.124-1.777-4.86-2.43-13.579-5.109-26.197,4.532-33.541,12.638 1.136.416 2.096-1.699 2.432-.486zm-12.152,0c-1.099,1.817-.772,5.061-2.431,6.319-6.187,1.014-7.872-2.938-11.18-4.375-4.414-1.917-9.31-.532-14.097-.486-2.152.021-6.416-2.189-8.75.972h4.861c8.361,5.041 15.373,16.229 28.68,13.125 2.196-7.688 10.552-9.215 11.18-18.471-3.476.25-5.483,1.969-8.263,2.916zm-89.927-2.43c-2.771,5.66-6.187,14.742-3.403,22.846 3.479-.445 1.285-3.81 1.458-5.833 .486-5.688 2.114-12.185 3.403-17.013h-1.458zm-50.553,3.888c-.64-1.506 1.441-2.696 0-3.402-.456.411-1.038,3.099 0,3.402zm2.43,1.945c-.466-1.639 1.489-3.32 0-4.375 .169,1.341-1.396,3.414 0,4.375zm-1.944.972c.283-1.203 1.761-3.71.486-4.861 .466,1.953-1.599,3.873-.486,4.861zm3.402,5.347c1.728-.756.293,1.651 1.458,1.458-.034-3.767 1.67-8.367.972-11.18-.88,3.17-2.509,5.591-2.43,9.722zm47.151,9.722c4.861.914 5.796-4.648 5.833-8.263 .046-4.46-2.062-9.862-4.375-11.18-1.925,4.921-3.53,13.534-1.458,19.443zm51.526-15.069c.396,3.04 2.655,5.686 3.889,8.75 .428,1.063.406,2.856.972,3.889 .708,1.29 1.868,1.575 2.43,2.917 .966,2.304.509,4.701 1.458,6.805 1.508,3.345 5.722,5.707 8.75,7.777 3.035,2.076 3.458,2.903 7.292,3.889 2.986.768 5.512,1.072 8.75.972 .107-.378.407-.565.972-.486 3.42-3.089-.193-6.849-.486-11.18-.246-3.627 1.971-6.079.486-9.236-7.349,9.692-16.778-2.14-21.874-6.805-3.23-2.958-7.009-5.14-8.264-7.777 1.242-.524 1.702,2.093 2.431.486-1.578-1.734-5.364-1.926-6.806-.001zm-100.621,1.458c.078-.339-.17-2.829-.486-1.458-.427,1.85.261,2.434.486,1.458zm117.148,8.75c4.918,4.261 13.926,10.48 16.527,2.431-13.111.472-17.578-7.699-25.763-12.152 1.481,2.83 5.336,6.342 9.236,9.721zm90.899,1.458c2.833,2.355 4.824,8.133 3.889,12.638-.021.517.229,1.234.485.486 1.938-3.086 3.483-6.563 2.917-12.152-.379-.107-.565-.407-.486-.972-4.091-2.066-7.649-4.665-10.693-7.778-2.103,1.3-4.376,3.637-7.292,3.889-2.44.212-5.187-1.283-7.777-.972-1.121.134-2.363,1.184-3.402,1.458-4.796,1.267-9.876.988-15.069,1.458-1.075.7.612,1.186-.485,1.458-1.98-.017-6.826-.369-5.348,1.458 .369-.804 4.006-.804 4.375,0-3.042-.685-1.785,1.08-2.431,1.944-1.162-.296-3.526.61-3.889-.486 .578-1.002 2.106.507 2.917-.972-3.178-.428-7.611-1.045-5.833,2.917 .442,1.176 1.435-1.102 2.917-.486 .343,2.25 1.602,3.583 1.944,5.833 3.023-1.189 1.561-6.866 5.348-7.292 1.035,1.908.395,5.741 0,7.777 4.081,3.008 9.076,2.031 13.61,2.917 7.922,1.547 8.681,9.18 15.555,10.694 3.193.703 5.966-.494 10.694,0 1.016-.28 1.387-1.205 2.916-.972 1.738.206 2.594,1.294 4.861.972-.065-2.366-2.137-2.725-1.458-5.833-1.638-.308-2.493-1.396-4.861-.972-1.216-5.59-.734-12.876-4.375-16.041-3.753-3.214-13.25-.685-17.985-2.917 5.107-.045 14.822-.591 18.956,1.946zm-203.672.973c.663-.656.926-3.394-.486-3.403-.258,1.06-1.177,3.144.486,3.403zm3.402,3.402c-.058-.808.266-4.402-.486-2.917 .059.809-.265,4.403.486,2.917zm134.161-.486c1.161,1.766 3.401,5.011 4.861,4.861-2.1-3.571-4.831-6.512-9.235-7.777 .367,2.063 2.694,2.166 4.374,2.916zm2.431,7.292c2.578.604 3.68,4.927 6.319,3.889 .471-1.929-1.407-1.509-2.43-1.944-.997-1.434-2.161-2.701-3.889-3.403-1.619-2.756-2.928-5.822-6.805-6.319 1.272,3.587 6.48,3.24 6.805,7.777zm12.638-.973c.321-2.595 1.113-4.72 1.944-6.805h-.972c-.853,1.43-2.224,4.885-.972,6.805zm-1.944,1.944c.261-2.655.711-5.122.972-7.777-2.532-.49-1.902,2.178-2.43,2.431-4.765,1.038-5.663-1.791-8.264-2.917 1.934,4.061 4.72,7.271 9.722,8.263zm-15.555-3.402c-.215-1.406-1.025-2.216-2.431-2.431 .215,1.406 1.026,2.216 2.431,2.431zm19.444-1.459h.972v-.972h-.972v.972zm8.75,2.917c-.152-1.17 2.121-2.354.486-3.402 .273,1.292-2,2.475-.486,3.402zm-9.722,2.431h2.431c.714-.707.714-3.182 0-3.889h-1.944c.106,1.565-.861,2.057-.487,3.889zm-106.94,10.208c2.528,1.685 2.331,6.094 4.375,8.264-1.409,5.73 1.604,10.079 4.375,13.124-.351,6.039 1.535,13.565 3.889,18.472 .294-1.002-.785-3.377.972-2.917 .844,4.342 1.1,9.271.973,14.583-2.893.448.038,4.812-1.944,5.348-.623-2.133-.328-5.182-2.431-5.834 .613,3.206-1.294,3.892-.972,6.806 3.679,1.039 5.29.981 7.292,2.917 3.025,2.925 2.491,9.282 2.43,15.068-.027,2.604.757,5.794-.972,7.291-1.402-2.972.443-9.192-.972-12.152-2.47,9.937-.289,23.438-.972,33.055 .048-1.507-.22-2.696-.972-3.402-.749,1.351-.337,4.996.972,5.833-.194-2.578.389-1.36 1.944-1.944 .755,5.243 1.767,12.812 1.458,17.499-1.669-2.22-.435-7.343-1.944-9.722-.304,3.868.845,6.284.486,10.208 2.91,3.571 2.334,10.628 3.403,16.041 1.799.341 1.212-1.704 1.944-2.431 .359-.775 2.379.11 1.944-1.458-3.446-24.556-4.204-51.143-5.347-76.316-.249-5.475.466-11.092 0-16.041-.198-2.108-1.224-4.205-1.458-6.319-.246-2.216.124-4.481 0-6.806-.648-12.138-3.522-24.913-.486-36.942 1.304-1.451 2.71-2.799 2.431-5.833-2.436.318-3.662,1.847-6.319,1.944 .372,5.812-2.099,11.487.486,15.555-.85-3.021.054-5.739.486-8.75 .301-2.097-.289-5.064 1.458-5.833-.902,5.889-1.204,14.474-1.458,19.444-1.722-2.442-1.915-5.12-4.861-5.347 1.727,5.31 4.697,10.053 2.917,17.5-1.114.215-2.333,2.808-.972,3.889 .216-.918-.661-2.93.972-2.43-.132,4.816 1.905,10.722-1.458,13.124-.632-4.066-.635-8.763-1.944-12.152 1.434-2.648 4.619-9.904.486-12.152-.757,3.184 1.386,7.562-.486,8.75-.161-2.972-2.254-8.826.486-10.208-3.37-.356-.95-6.503-3.403-7.777-1.573-.601-.372,1.573-1.944.972-1.186-3.807-4.795-7.338-3.889-11.667-5.978.882.487,4.014-.975,8.746zm87.496-5.348c-.13-3.11.678-7.159-1.944-7.777-.037,3.277.798,5.683 1.944,7.777zm31.596,10.208c-1.452,1.336 1.146,3.343 2.43,1.944-.372-2.386-1.135-1.852 0-3.889-1.915-.029-1.905-1.983-3.889-1.944-.304,2.087.434,3.132 1.459,3.889zm3.889,1.459c-1.797,2.56-4.286.713-6.806.486-2.674-.241-5.777.392-8.264-.486-1.331-.471-2.839-2.13-3.889-2.917s-3.143-3.774-3.402-1.944c-2.384,3.072 1.165,9.167-4.375,8.75-1.163-3.984 1.812-7.421.972-12.639-2.707-2.64-4.153-6.541-7.777-8.264-1.632,13.505 4.829,18.94 7.777,28.193 .688,2.158.656,5.602 1.458,7.292 1.053,2.219 4.125,4.164 5.833,6.805 1.493,2.31 2.435,5.324 3.889,6.806 5.611,5.718 15.878,5.836 21.388,12.152 1.254,1.437 1.708,3.301 3.403,4.86 1.41.533 3.449.439 4.86.973 1.862,1.32 4.039,4.568 7.291,2.916 1.415-1.769-1.121-2.836-.972-4.86 2.01.421 1.318,3.542 3.402,3.889 3.7-3.497.703-8.453.973-13.125 .148-2.573 1.558-5.125 1.944-7.777 .918-6.3.722-16.032 0-21.874-.71-5.747-5.06-9.021-7.777-13.61-1.852-3.125-3.302-8.064-6.806-9.722-.966-.457-3.299-.812-4.375-.973-4.517-.673-9.15.064-14.097-2.916-1.457,6.158-3.492,11.738-7.291,15.555 2.355-.14 3.896,1.072 5.833,0 .151-1.47-.54-3.78.972-3.889 2.688-1.36 3.833,1.634 5.833,2.43 .003,1.296.003,2.593.003,3.889zm-110.343-3.889c-.355-4.892.543-8.53.486-13.125-.107-.378-.407-.565-.972-.486 .475,4.638-1.822,10.194.486,13.611zm84.094-8.263c-.71-2.217-3.156-5.256-4.861-4.861 2.18,1.059 2.8,3.68 4.861,4.861zm-87.982,1.458c.426-.53.108-6.387-.486-5.833 .309,1.796-.63,4.842.486,5.833zm1.458.486c.208,4.424.739-1.176.486-2.917 .026-1.493 1.151-3.476-.486-3.889v6.806zm-3.403-3.889c.132-.662-.301-1.898-.486-.973-.132.663.301,1.899.486.973zm41.804,10.208c-4.532,11.732-10.73,25.225-13.611,39.86-.689,3.501-.832,7.788-1.458,11.666-.869,5.378-2.988,10.3-1.944,15.068-.822,2.75-3.202,6.511-3.403,8.264 3.596-2.194 3.883-5.868 4.861-11.18 2.194-11.922 3.843-24.94 6.319-34.513 4.143-16.014 11.414-29.117 19.443-40.346-4.492.731-6.188,8.367-10.207,11.181zm59.303-7.778c-1.898-2.71 2.17-1.055 1.944-3.403h-2.917c.355,1.105-.875,3.793.973,3.403zm4.375-1.944c0,.007.987-.862 0-.972-1.124,4.002.115,5.463 0,.972zm-104.996,4.375c-.354-1.104.875-3.792-.972-3.403-.048,1.507.22,2.697.972,3.403zm96.246,1.944c.645-.813 1.288-1.629.972-3.403-1.687.39-1.869-.724-3.403-.486-.048,2.156.576,3.637 2.431,3.889zm2.43,3.403c2.012-.592 3.792-3.969 2.917-5.833-.87,2.009-5.238,3.612-2.917,5.833zm-22.846,0c-2.13-.52-3.6-1.245-5.833-.486-2.052,9.532 9.937,7.059 10.694,14.583 .246,2.446-1.734,7.883-3.402,10.208-1.989,2.771-5.986,3.555-8.75,6.319-4.356,4.356-4.552,11.477-5.833,17.985-.887,4.506-3.484,7.598-4.861,11.667 4.019-1.939 6.377-5.929 10.208-8.75 3.678-2.709 7.84-4.979 10.694-8.264 2.604-2.996 4.21-9.66 5.347-13.124 .372-1.134.357-3.354 1.944-3.889-1.64,10.049-4.368,16.454-10.694,21.388-5.552,4.329-12.428,7.346-15.555,14.097 7.079-4.911 15.836-8.145 27.708-8.264 5.323-5.607 6.477-16.255 4.86-26.249-3.155-.712-3.914,3.521-4.86,3.402 5.266-15.058-5.173-24.233-7.778-35.97-.63,2.449-1.932,4.225-3.889,5.347zm27.221-1.458c1.504.332 2.024-2.785.972-3.403-.081,1.377-.891,2.026-.972,3.403zm-101.107-1.459c.132-.662-.301-1.897-.486-.972-.132.662.301,1.898.486.972zm18.472,2.917c-2.389,1.668-6.242,9.642-7.291,14.097-.227.964.288,2.085 0,2.917-.559,1.617-1.355,1.606-1.458,2.917-.218,2.778.845,5.796 1.458,8.264 2.605-1.614 5.62-5.981 4.861-10.208-.292-1.623-2.255-2.017-1.944-3.889 2.111-7.286 5.412-13.384 11.666-16.527-.377.109-.958.013-.972.486-1.962.834-4.244.494-6.32,1.943zm-139.508,27.707c-1.745,3.25 1.167,5.486 1.458,8.749 .643,7.201-3.566,17.101 1.944,22.36 .219-4.805 2.369-7.677 3.403-11.666 2.948-2.723 7.785-3.558 8.264-8.749-3.625-4.94-1.38-13.89 4.861-14.583 .192-.836-.722-1.247 0-1.458 2.67-.732 4.774-2.031 7.292-2.917 .763.209.416,1.529 1.944.972 1.321-.3 2.276-.964 2.917-1.944-1.593-.857-4.932.073-6.805.486 .825-2.283-2.283-.633-1.458-2.917-2.543.535-4.29,1.867-5.833,3.403 2.091.128 3.97-2.486 5.347-1.458-8.613,2.408-15.162,6.877-23.334,9.722zm117.148-6.805c.36,4.769.764,9.011 1.944,12.152 .732,1.948 2.571,6.105 3.889,5.833-2.659-5.858-5.021-12.193-3.889-19.443-.721-.575-.756-1.836-1.458-2.431-1.071.582 1.74,6.465-.486,3.889zm3.403,18.471c-1.194-2.788-3.396-5.659-4.375-9.722-1.004-4.167.407-10.592-4.375-11.666-.699,7.247-3.207,16.733 1.458,21.388 2.646.919 4.082,3.048 6.805,3.889 .081-2.512-2.615-2.245-2.431-4.86 1.321-.303 2.277,2.198 2.918.971zm.485,4.862c1.719.028 1.781,3.323 3.403,1.944-.576-1.531-.547-3.667-1.458-4.861-.988.632-1.161,2.08-1.945,2.917zm5.833,28.192c.045-2.547.809-4.376.486-7.291-3.498,1.612-1.862-7.988-5.347-6.319 1.817,4.34 2.84,9.475 4.861,13.61zm1.945-8.749c-.051-1.245-.275-2.317-.972-2.917-.101,1.397.123,2.47.972,2.917zm-35.485,6.806c-.639,1.305-2.919.97-2.917,2.916 7.079-.972 7.829,8.086 14.097,4.861 2.051.713 3.503,4.583 6.319,2.916-5.043-4.354-10.857-7.937-17.499-10.693zm41.804,19.929c.294,1.164.699,2.217.486,3.889 2.778-2.249.792-9.189 5.347-10.694 .089,1.102-2.057,3.913-.972,2.916 2.316-3.192 4.103-6.915 6.319-10.207-1.242-.524-1.702,2.093-2.431.485 1.45-.94 4.91-4.644 4.375-4.375-6.224,4.146-9.156,11.584-13.124,17.986zm12.152-15.555c-.758,1.252 4.393-1.891 2.917-2.916-.964.98-1.936,1.952-2.917,2.916zm-9.722,8.75c2.635-4.009 4.886-8.4 8.75-11.181-4.889,1.433-7.731,7.497-8.75,11.181zm-13.124-2.917h1.944c-.269-.865-.25-2.019-.973-2.43 .365,1.497-1.675.592-.971,2.43zm-14.583,2.917c-2.474.083-5.667-3.888-5.833-2.917 2.093,2.769 5.552,4.171 8.75,5.833 .767,1.016.337,3.229.972,4.375 3.731,2.589 9.802,2.837 11.666,7.292-.756-1.739.43-3.253-.972-4.861-1.28.426-3.138-3.883-1.458-5.347-1.702-1.701-3.141-3.664-4.375-5.833-3.746-.344-6.625.18-8.75,1.458zm14.583,3.402c-.12-2.473-.313-4.872-1.944-5.833 .86,1.732-.38,5.565 1.944,5.833zm11.18,0c.028-.296.073-.575.486-.486-.055-.593-.146-1.15-.972-.972 .076.572-.083,1.38.486,1.458zm-11.18,3.889c.702,4.67 0-2.073 0,0zm4.375,14.096c.132-.662-.301-1.897-.486-.972-.133.662.301,1.898.486.972zm-19.93,53.471c3.012,3.684 11.156-1.934 13.611,2.916 1.201-2.342 4.184-3.899 2.43-7.777-7.791-2.662-7.966,6.214-16.041,4.861zm14.097,3.889c.562,8.835 4.122,14.674 3.889,24.304 4.827,2.465 5.38,9.203 7.777,14.097-.793-15.965-.171-32.367-10.208-40.345-.487.646-.802,1.466-1.458,1.944zm10.694,64.164c-1.564-3.135-4.584-4.813-6.319-7.778 .254-3.009-1.042-4.468-3.403-4.86-1.142,9.662 2.135,14.821 9.722,12.638zm4.375,30.623c1.313-3.223 1.555-7.519 2.431-11.18-1.531.234-1.101-1.492-2.917-.973 .32,3.893-.644,9.07.486,12.153z" fill-rule="evenodd" /><path d="m27.05,324.029c-1.625-1.345.929-2.603.486-4.375-1.094,1.012-1.389,2.824-2.43,3.889-5.428-.993-18.987.825-23.819-2.916-2.409-1.866-1.061-5.285.972-7.778 2.219-.436 2.755.81 4.375.972 .41,2.031-.945,2.296-.972,3.889 1.941,4.044 11.512,2.853 15.555,1.944 1.961-2.251 3.129-5.296 4.861-7.777 1.412.678-.138,2.399-.486,2.917 .391-.257.789-.507 1.458-.486-.722,2.842-2.374,4.755-3.889,6.805 4.735-.014 4.233-7.281 5.833-11.18 3.274,1.229.386,7.013 0,9.236 2.838.084 4.407-1.102 6.319-1.944 2.379.163-.738.498-.486,1.458-2.444.148-3.84,1.345-5.833,1.944-1.363.419-1.034,2.53-1.944,3.402zm-25.763-4.861h2.431c-1.633-2.568 2.256-1.746 1.458-4.861-3.224-.307-3.737,2.097-3.889,4.861zm9.236,2.917c1.796-.31 4.842.629 5.833-.486-1.961.284-4.351-1.544-5.833.486z" fill-rule="evenodd" /><path d="m159.753,161.675c-6.233,6.729-9.427,16.499-11.18,27.708-1.431-1.276-.364-4.104-.486-6.319-.261-4.741.8-11.439 4.375-14.097 .57.079.41.886.486,1.458 .996-.786 1.226-2.339 1.944-3.403-1.613.098-.45-1.705.486-2.917 .722.212-.191.622 0,1.458 2.089-.665 1.993-3.516 4.375-3.888z" fill-rule="evenodd" /><path d="m113.088,162.161c.564.408 1.303.641 2.43.486 .569.728.604,1.988 1.458,2.431 .606.771-3.356-1.651-3.888-2.917z" fill-rule="evenodd" /><path d="m86.839,165.078c.367-1.539 2.989,1.416 2.917,1.458-.29.169-1.798-1.499-2.917-1.458z" fill-rule="evenodd" /><path d="m254.055,164.592c-.491.805-2.064.528-2.917.972-1.019-.433 1.738-1.133 2.917-.972z" fill-rule="evenodd" /><path d="m74.687,167.022c1.976-3.129 6.384.088 9.236.486 4.775,7.215 14.007,9.974 19.443,16.527 .767,1.178 1.739,2.15 2.917,2.917-.672.796-2.245-1.616-2.917-2.43-2.333-2.064-4.645-4.166-7.777-6.319-1.524-1.048-3.833-1.755-5.347-2.917-.649-.498-.804-1.813-1.458-2.431-3.023-2.85-7.762-7.554-14.097-5.833z" fill-rule="evenodd" /><path d="m82.464,166.05c2.699-.423 6.328,2.416 8.75,3.889-1.977-.3-5.948-2.796-8.75-3.889z" fill-rule="evenodd" /><path d="m249.68,165.563c-.356.454-.884.737-1.458.973-1.222-.209.808-1.047 1.458-.973z" fill-rule="evenodd" /><path d="m162.669,172.369c-1.213-.336.902-1.297.486-2.431 1.472.595-.343,1.856-.486,2.431z" fill-rule="evenodd" /><path d="m167.53,174.313c.862-.648-2.256,2.408-2.43,3.889-.391-.257-.79-.507-1.458-.486-.979-1.513 1.178-3.343-.972-3.889-.075-1.209.764-1.505.972-2.43 1.456.32-.465,1.039 0,1.944 .433-.215.87-.427.972-.972-.263,2.4 1.572.586.972,2.917 .719-.253 1.225-.72 1.944-.973z" fill-rule="evenodd" /><path d="m92.672 171.4c-0.746-0.35 3.649 2.038 3.889 3.889-1.5-1.093-2.796-2.389-3.889-3.889z" fill-rule="evenodd" /><path d="m78.09,172.855c.792-.602 2.786,1.729 2.917,3.403-2.353.246-.821-3.392-2.917-3.403z" fill-rule="evenodd" /><path d="m272.04,175.286c-.285-1.726 2.042-.78 3.402-.972 2.566-.363 5.521-.878 6.806-.972 1.108-.082 1.525-.685.485.486-3.641.407-6.594,1.506-10.693,1.458z" fill-rule="evenodd" /><path d="m268.638,177.23c.65-.974 2.292-.331 3.889-.486 3.945-.384 11.187-2.49 6.805,0-3.883-.39-7.77,1.507-10.694.486z" fill-rule="evenodd" /><path d="m170.933,194.729c5.041-1.638 11.274-1.179 16.041-.486 8.414,1.224 14.629,6.124 18.958,10.694-3.368.116-4.304-3.53-6.805-5.347-6.543-4.753-17.009-5.64-28.194-4.861z" fill-rule="evenodd" /><path d="m165.1,196.673c-.647,1.136-2.172,1.393-3.403,1.945 .607-1.176 1.992-1.573 3.403-1.945z" fill-rule="evenodd" /><path d="m166.56 198.62c-1.833 1.407-4.447 2.034-6.805 2.916 1.655-1.585 3.929-2.552 6.805-2.916z" fill-rule="evenodd" /><path d="m158.781,201.048c1.376,2.112-2.476,2.528-2.917,4.375 4.169-2.372 10.882-6.921 20.902-6.319 4.393.264 9.47.81 12.152,3.403-6.231-1.436-12.265-3.24-18.472-2.431-10.608,1.383-16.812,10.36-24.304,14.097 1.261-1.509 2.997-2.07 4.375-3.403 1.231-1.19 1.631-3.236 3.403-3.889-.465-.905 1.456-1.625 0-1.944 1.355-1.249 3.121-4.64 4.861-3.889z" fill-rule="evenodd" /><path d="m180.655,210.284c-.647.973-2.158,1.083-3.403,1.458-1.071.811 1.701-1.909 3.403-1.458z" fill-rule="evenodd" /><path d="m180.17 211.74c0.86 1.761-5.904 2.866 0 0z" fill-rule="evenodd" /><path d="m182.113,215.631c.044-1.326-.81-.978 0-1.944-1.374-.401-1.259.686-2.431.486 .281-1.178 1.835-1.081 2.917-1.458 .055,1.728 1.798,1.767 1.458,3.889-1.242.963-2.235-.505-2.917.486-1.155-.144.541-1.316.973-1.459z" fill-rule="evenodd" /><path d="m98.02 236.05c-2.828 3.978-6.798 6.812-8.75 11.666 0.573-4.291 5.402-8.53 8.75-11.666z" fill-rule="evenodd" /><path d="m114.55 241.39c-0.483 4.705-5.485 9.095-8.263 13.125 1.318-3.871 6.625-7.956 8.263-13.125z" fill-rule="evenodd" /><path d="m167.53 241.88c1.125 9.713-3.257 18.13-5.833 25.763 1.527-7.063 5.297-16.09 5.833-25.763z" fill-rule="evenodd" /><path d="m116.98 243.34c-1.601 3.26-2.406 7.316-5.347 9.236 0.516-0.102 3.259-7.177 5.347-9.236z" fill-rule="evenodd" /><path d="m73.229,254.032c-.972,1.906-6.563-1.597-9.235.486-.097-1.78 7.22-1.903 9.235-.486z" fill-rule="evenodd" /><path d="m62.049,254.032c1.544.81-2.374.163-2.431.972-1.141-.407 1.278-1.258 2.431-.972z" fill-rule="evenodd" /><path d="m136.42,256.949c.76,1.509 2.407,2.129 1.944,4.861-1.386-.882-1.566-2.97-1.944-4.861z" fill-rule="evenodd" /><path d="m154.892,258.407c2.048,7.236-2.422,12.158-3.889,17.499-.806-2.438 1.75-5.695 1.458-9.235 1.054-.082.22,1.724.486,2.43 2.659-1.554.691-7.735 1.945-10.694z" fill-rule="evenodd" /><path d="m234.61 259.38c0.57-0.235-3.625 2.733-5.347 3.402 1.45-1.466 3.089-2.743 5.347-3.402z" fill-rule="evenodd" /><path d="m237.04 259.86c0.457-0.049-4.026 2.999-6.319 3.403 1.715-1.524 3.856-2.624 6.319-3.403z" fill-rule="evenodd" /><path d="m237.53 261.32c-2.986 2.522-6.237 4.781-10.208 6.319 3.271-2.239 6.381-4.638 10.208-6.319z" fill-rule="evenodd" /><path d="m231.208,267.157c.997.716-1.814,1.717-2.916,1.944 1.741.753 5.369-.776 6.805-1.944 .869-.137.997.459.486.486-2.684,1.322-5.487,3.032-9.235,1.944 1.109-1.321 3.624-1.236 4.86-2.43z" fill-rule="evenodd" /><path d="m159.75 270.07c0.683 1.511-2.188 3.632-2.917 5.347-0.551-1.379 2.182-3.638 2.917-5.347z" fill-rule="evenodd" /><path d="m155.38 276.39c1.417-0.665-1.109 1.767-1.458 2.43-1.19-0.604 1.457-1.414 1.458-2.43z" fill-rule="evenodd" /><path d="m50.382,278.823c.928-.1 3.58,2.24 4.375,3.889-2.019-.735-3.071-2.438-4.375-3.889z" fill-rule="evenodd" /><path d="m150.03 281.25c1.215 7e-3 -4.237 2.398 0 0z" fill-rule="evenodd" /><path d="m26.078,299.725c2.945-.668 4.876,3.867 8.75,3.889 1.544.408-.863.642-1.458.486-2.526-1.364-5.179-2.6-7.292-4.375z" fill-rule="evenodd" /><path d="m255.03 305.56c3.273-0.027 6.18 4.511 8.264 7.292 4.232 2.573 7.156 6.455 9.722 10.694-5.78-6.211-11.21-12.771-17.986-17.986z" fill-rule="evenodd" /><path d="m76.146 315.28c-1.082 1.489-3.39 1.133-5.347 1.944-3.27 1.354-6.046 4.569-9.236 6.319 3.736-3.878 7.332-7.898 14.583-8.263z" fill-rule="evenodd" /><path d="m40.175,321.599c.039-.045-.049-.47 0-.486 3.441-1.147-2.666,2.375 0,.486z" fill-rule="evenodd" /><path d="m262.8 321.6c1.758-1.09 2.729 2.767 4.861 2.917-1.558 0.889-3.274-2.22-4.861-2.917z" fill-rule="evenodd" /><path d="m267.66 325.97c1.748 0.528 3.987 4.756 4.375 8.264-1.352-2.861-2.416-6.01-4.375-8.264z" fill-rule="evenodd" /><path d="m272.53 336.18c-1.431-3.15 0.646 1.422 0 0z" fill-rule="evenodd" /><path d="m171.905,520.896c2.75.899.953,4.454 0,5.833 .254-1.437-.236-4.012 0-5.833z" fill-rule="evenodd" /></g></svg>